<svg width="70" height="450" viewBox="0 0 70 450" fill="none" xmlns="http://www.w3.org/2000/svg">
<path d="M3.00331 18.5C2.83664 13.3333 8.90331 3 34.5033 3C60.1033 3 66.8364 13.3333 67.0029 18.5" stroke="#C6C6C6" stroke-width="5" stroke-linecap="round"/>
<path d="M3.00331 145.5C2.83664 140.333 8.90331 130 34.5033 130C60.1033 130 66.8364 140.333 67.0029 145.5" stroke="#C6C6C6" stroke-width="5" stroke-linecap="round"/>
<path d="M3.00331 82.5C2.83664 77.3333 8.90331 67 34.5033 67C60.1033 67 66.8364 77.3333 67.0029 82.5" stroke="#C6C6C6" stroke-width="5" stroke-linecap="round"/>
<path d="M3.00331 311.5C2.83664 306.333 8.90331 296 34.5033 296C60.1033 296 66.8364 306.333 67.0029 311.5" stroke="#C6C6C6" stroke-width="5" stroke-linecap="round"/>
<path d="M3.00331 379.5C2.83664 374.333 8.90331 364 34.5033 364C60.1033 364 66.8364 374.333 67.0029 379.5" stroke="#C6C6C6" stroke-width="5" stroke-linecap="round"/>
<path d="M3.00331 447.5C2.83664 442.333 8.90331 432 34.5033 432C60.1033 432 66.8364 442.333 67.0029 447.5" stroke="#C6C6C6" stroke-width="5" stroke-linecap="round"/>
</svg>
